<svg width="298" height="385" viewBox="0 0 298 385" fill="none" xmlns="http://www.w3.org/2000/svg">
<path d="M115.497 118.632C116.136 122.823 117.024 126.979 118.019 131.134C123.488 153.653 136.879 174.076 153.111 190.272C167.603 204.764 184.794 216.343 202.944 225.933C231.074 240.779 260.59 246.178 292.201 246.889C295.149 246.96 296.89 243.585 295.149 241.206C276.964 216.734 202.979 120.798 133.896 80.449C140.964 75.9026 146.612 69.4027 150.128 61.6952L166.573 55.515C169.023 54.5915 169.663 51.4659 167.816 49.6545L153.253 35.4826C149.417 15.2729 131.658 0 110.346 0C110.346 0 109.956 0 109.21 0C109.21 0 109.21 0 109.174 0C109.139 0 109.103 0 109.032 0C108.891 0 108.748 0 108.606 0.0355185C104.486 0.177592 100.508 0.92348 96.7784 2.13111C81.0793 6.67747 56.0387 20.9204 46.2357 65.283C40.162 92.7387 48.1892 118.134 63.7818 139.303C68.2571 162.994 82.7131 203.876 129.242 222.275C137.696 225.613 145.723 228.313 153.395 230.444V268.2H64.3146C61.5318 268.165 66.7745 268.164 62.1571 268.164C58.7828 268.164 65.3537 268.2 56.4741 268.164C52.9223 268.164 50.2465 268.2 49.9032 268.164C49.56 268.129 42.9771 268.164 42.9771 268.164C41.3788 268.164 42.9771 268.2 39.958 268.2C37.8269 268.164 38.5373 268.164 37.214 268.164H7.485C4.53696 268.164 2.15723 270.544 2.15723 273.492V292.672C2.15723 295.62 4.53696 298 7.485 298H268.475C271.423 298 273.803 295.62 273.803 292.672V273.492C273.803 270.544 271.423 268.164 268.475 268.164H180.531C181.241 254.952 194.561 237.299 194.241 237.086C193.105 236.34 191.968 235.594 190.831 234.813C155.313 210.696 123.915 174.964 116.456 131.49C115.71 126.375 115.177 121.296 114.964 116.146C114.928 114.761 114.893 114.015 114.893 114.015C114.893 114.015 115 114.761 115.177 116.11C115.248 116.962 115.39 117.815 115.497 118.632ZM123.417 25.1116C128.319 25.1116 132.297 29.0896 132.297 33.9912C132.297 38.8927 128.319 42.8708 123.417 42.8708C121.038 42.8708 118.836 41.9118 117.237 40.3845C115.568 38.7507 114.503 36.513 114.503 33.9912C114.503 32.5704 114.858 31.1852 115.462 30.0131C116.953 27.1006 119.936 25.1116 123.417 25.1116Z" fill="#84142D"/>
<path d="M6.662 362V319.95H13.042V355.968H33.922V362H6.662ZM39.7968 362V319.95H67.4048V325.692H46.1768V337.988H65.0848V343.846H46.1768V356.142H68.2168V362H39.7968ZM120.165 358.984C119.701 359.332 119.043 359.719 118.193 360.144C117.381 360.531 116.414 360.898 115.293 361.246C114.171 361.594 112.915 361.884 111.523 362.116C110.169 362.348 108.719 362.464 107.173 362.464C103.886 362.464 100.928 361.903 98.2988 360.782C95.7082 359.622 93.5042 358.075 91.6868 356.142C89.8695 354.209 88.4775 351.966 87.5108 349.414C86.5442 346.862 86.0608 344.155 86.0608 341.294C86.0608 338.123 86.6215 335.204 87.7428 332.536C88.9028 329.868 90.4688 327.567 92.4408 325.634C94.4128 323.701 96.7135 322.193 99.3428 321.11C102.011 320.027 104.833 319.486 107.811 319.486C108.932 319.486 110.073 319.563 111.233 319.718C112.393 319.873 113.475 320.085 114.481 320.356C115.525 320.627 116.433 320.955 117.207 321.342C118.019 321.69 118.637 322.057 119.063 322.444C118.753 322.908 118.502 323.295 118.309 323.604C118.154 323.913 117.98 324.242 117.787 324.59C117.593 324.899 117.381 325.267 117.149 325.692C116.917 326.117 116.607 326.678 116.221 327.374C115.718 327.026 115.119 326.736 114.423 326.504C113.765 326.272 113.069 326.079 112.335 325.924C111.6 325.769 110.846 325.653 110.073 325.576C109.338 325.499 108.661 325.46 108.043 325.46C105.8 325.46 103.712 325.885 101.779 326.736C99.8842 327.548 98.2408 328.669 96.8488 330.1C95.4568 331.492 94.3548 333.116 93.5428 334.972C92.7695 336.828 92.3828 338.761 92.3828 340.772C92.3828 342.744 92.7502 344.639 93.4848 346.456C94.2582 348.273 95.3022 349.897 96.6168 351.328C97.9702 352.759 99.5748 353.899 101.431 354.75C103.325 355.601 105.394 356.026 107.637 356.026C108.835 356.026 109.995 355.91 111.117 355.678C112.238 355.446 113.243 355.175 114.133 354.866C115.061 354.557 115.815 354.247 116.395 353.938C117.013 353.629 117.381 353.397 117.497 353.242L120.165 358.984ZM151.989 362C151.796 361.575 151.525 360.956 151.177 360.144C150.829 359.332 150.423 358.404 149.959 357.36C149.534 356.277 149.05 355.117 148.509 353.88C148.006 352.604 147.484 351.289 146.943 349.936H132.095L127.107 362H120.843L139.577 317.978C139.809 318.519 140.215 319.505 140.795 320.936C141.414 322.367 142.129 324.087 142.941 326.098C143.792 328.07 144.72 330.274 145.725 332.71C146.769 335.107 147.813 337.543 148.857 340.018C149.94 342.493 150.984 344.929 151.989 347.326C153.033 349.723 153.98 351.927 154.831 353.938C155.682 355.949 156.397 357.669 156.977 359.1C157.596 360.492 158.021 361.459 158.253 362H151.989ZM134.299 344.6H144.797C144.256 343.324 143.734 342.106 143.231 340.946C142.767 339.747 142.322 338.665 141.897 337.698C141.51 336.693 141.162 335.823 140.853 335.088C140.544 334.353 140.312 333.773 140.157 333.348C140.118 333.271 140.022 333 139.867 332.536C139.751 332.072 139.654 331.647 139.577 331.26C139.5 331.647 139.384 332.072 139.229 332.536C139.074 333 138.978 333.271 138.939 333.348L134.299 344.6ZM200.388 319.95V363.914C199.847 363.218 198.803 362.097 197.256 360.55C195.709 359.003 193.931 357.225 191.92 355.214C189.909 353.203 187.763 351.096 185.482 348.892C183.239 346.688 181.113 344.6 179.102 342.628C177.091 340.617 175.332 338.839 173.824 337.292C172.316 335.707 171.311 334.585 170.808 333.928L169.706 332.42L169.88 334.276V362H163.5V317.978C163.925 318.519 164.621 319.293 165.588 320.298C166.593 321.303 167.753 322.483 169.068 323.836C170.421 325.151 171.891 326.581 173.476 328.128C175.1 329.675 176.724 331.241 178.348 332.826C180.011 334.411 181.635 335.977 183.22 337.524C184.844 339.032 186.313 340.443 187.628 341.758C188.981 343.073 190.141 344.233 191.108 345.238C192.075 346.243 192.751 346.997 193.138 347.5L194.24 349.124L194.066 347.152V319.95H200.388ZM236.78 362C236.587 361.575 236.316 360.956 235.968 360.144C235.62 359.332 235.214 358.404 234.75 357.36C234.325 356.277 233.842 355.117 233.3 353.88C232.798 352.604 232.276 351.289 231.734 349.936H216.886L211.898 362H205.634L224.368 317.978C224.6 318.519 225.006 319.505 225.586 320.936C226.205 322.367 226.92 324.087 227.732 326.098C228.583 328.07 229.511 330.274 230.516 332.71C231.56 335.107 232.604 337.543 233.648 340.018C234.731 342.493 235.775 344.929 236.78 347.326C237.824 349.723 238.772 351.927 239.622 353.938C240.473 355.949 241.188 357.669 241.768 359.1C242.387 360.492 242.812 361.459 243.044 362H236.78ZM219.09 344.6H229.588C229.047 343.324 228.525 342.106 228.022 340.946C227.558 339.747 227.114 338.665 226.688 337.698C226.302 336.693 225.954 335.823 225.644 335.088C225.335 334.353 225.103 333.773 224.948 333.348C224.91 333.271 224.813 333 224.658 332.536C224.542 332.072 224.446 331.647 224.368 331.26C224.291 331.647 224.175 332.072 224.02 332.536C223.866 333 223.769 333.271 223.73 333.348L219.09 344.6ZM248.291 362V319.95H259.775C261.979 319.95 263.99 320.24 265.807 320.82C267.663 321.4 269.248 322.27 270.563 323.43C271.916 324.551 272.96 325.943 273.695 327.606C274.43 329.23 274.797 331.105 274.797 333.232C274.797 334.392 274.681 335.552 274.449 336.712C274.217 337.833 273.83 338.935 273.289 340.018C272.786 341.062 272.129 342.048 271.317 342.976C270.505 343.865 269.519 344.619 268.359 345.238C269.906 347.674 271.588 350.381 273.405 353.358C275.222 356.297 277.059 359.177 278.915 362H271.317C270.544 360.801 269.732 359.545 268.881 358.23C268.069 356.915 267.238 355.62 266.387 354.344C265.575 353.029 264.763 351.753 263.951 350.516C263.178 349.24 262.443 348.061 261.747 346.978H260.587H254.671V362H248.291ZM254.671 341.004H260.413C261.96 341.004 263.255 340.753 264.299 340.25C265.343 339.709 266.155 339.051 266.735 338.278C267.354 337.505 267.779 336.673 268.011 335.784C268.282 334.895 268.417 334.083 268.417 333.348C268.417 332.613 268.282 331.821 268.011 330.97C267.779 330.081 267.354 329.269 266.735 328.534C266.116 327.761 265.285 327.123 264.241 326.62C263.236 326.117 261.979 325.866 260.471 325.866H254.671V341.004ZM284.711 319.95H291.033V362H284.711V319.95Z" fill="#84142D"/>
</svg>
